HIERARCHY
ROOT hip
{
	OFFSET 0.000000 0.000000 0.000000 
	CHANNELS 6 Xposition Yposition Zposition Xrotation Zrotation Yrotation
	JOINT abdomen
	{
		OFFSET 0.000000 3.402643 0.000000 
		CHANNELS 3 Xrotation Zrotation Yrotation
		JOINT chest
		{
			OFFSET 0.000000 8.438565 -0.680529 
			CHANNELS 3 Xrotation Zrotation Yrotation
			JOINT neck
			{
				OFFSET 0.000000 10.207942 -0.272212 
				CHANNELS 3 Xrotation Zrotation Yrotation
				JOINT head
				{
					OFFSET 0.000000 3.130431 0.000000 
					CHANNELS 3 Xrotation Zrotation Yrotation
					End Site
					{
						OFFSET 0.000000 3.130435 0.000000 
					}
				}
			}
			JOINT lCollar
			{
				OFFSET 3.470700 6.669187 -0.816635 
				CHANNELS 3 Yrotation Zrotation Xrotation
				JOINT lShldr
				{
					OFFSET 3.198488 0.000000 0.000000 
					CHANNELS 3 Zrotation Yrotation Xrotation
					JOINT lForeArm
					{
						OFFSET 10.139888 0.000000 0.000000 
						CHANNELS 3 Yrotation Zrotation Xrotation
						JOINT lHand
						{
							OFFSET 8.370511 0.000000 0.000000 
							CHANNELS 3 Zrotation Yrotation Xrotation
							End Site
							{
								OFFSET 4.083176 0.000000 0.000000 
							}
						}
					}
				}
			}
			JOINT rCollar
			{
				OFFSET -3.470700 6.669187 -0.816635 
				CHANNELS 3 Yrotation Zrotation Xrotation
				JOINT rShldr
				{
					OFFSET -3.198488 0.000000 0.000000 
					CHANNELS 3 Zrotation Yrotation Xrotation
					JOINT rForeArm
					{
						OFFSET -10.139888 0.000000 0.000000 
						CHANNELS 3 Yrotation Zrotation Xrotation
						JOINT rHand
						{
							OFFSET -8.370511 0.000000 0.000000 
							CHANNELS 3 Zrotation Yrotation Xrotation
							End Site
							{
								OFFSET -4.083176 0.000000 0.000000 
							}
						}
					}
				}
			}
		}
	}
	JOINT lThigh
	{
		OFFSET 5.308129 -1.633274 1.361059 
		CHANNELS 3 Xrotation Zrotation Yrotation
		JOINT lShin
		{
			OFFSET -2.041588 -20.007561 0.000000 
			CHANNELS 3 Xrotation Zrotation Yrotation
			JOINT lFoot
			{
				OFFSET 0.000000 -19.190928 -1.224953 
				CHANNELS 3 Xrotation Yrotation Zrotation
				End Site
				{
					OFFSET 0.000000 -2.449906 4.627600 
				}
			}
		}
	}
	JOINT rThigh
	{
		OFFSET -5.308129 -1.633274 1.361059 
		CHANNELS 3 Xrotation Zrotation Yrotation
		JOINT rShin
		{
			OFFSET 2.041588 -20.007561 0.000000 
			CHANNELS 3 Xrotation Zrotation Yrotation
			JOINT rFoot
			{
				OFFSET 0.000000 -19.190928 -1.224953 
				CHANNELS 3 Xrotation Yrotation Zrotation
				End Site
				{
					OFFSET 0.000000 -2.449906 4.627600 
				}
			}
		}
	}
}
MOTION
Frames: 18
Frame Time: 0.033333
-23.039541 49.803261 -2.192085 -1.699596 -2.342117 -2.140476 0.000000 0.000000 0.000000 -0.648754 -1.239099 2.451654 3.935357 -5.417392 -1.755910 12.617419 6.179905 -6.590180 -3.610069 9.895100 0.434220 37.165108 -126.603485 -53.704056 -92.525375 8.868482 -21.320995 -2.118732 6.191625 -3.588301 10.409790 2.189265 0.009598 55.823109 8.406726 42.838669 47.424999 17.194860 17.934860 0.053343 -2.794915 -3.494794 4.362967 3.495441 6.660536 8.100694 -4.293020 24.890684 -10.722621 0.008582 0.047529 0.838617 -15.006045 -10.911453 9.602003 1.128158 -10.938311 5.625416 0.495140 10.051240 
-22.728043 49.812164 -2.203970 -2.479148 -3.123109 -1.995612 0.000000 0.000000 0.000000 0.085579 -1.102740 2.148791 4.318204 -4.929416 -1.725817 12.488490 5.940577 -6.313158 -3.930667 10.268073 1.118231 37.786682 -127.793251 -54.734417 -92.411636 8.928047 -21.446953 0.098840 5.671197 -3.526760 8.700655 4.156661 0.551590 54.344242 9.466075 44.300938 49.308804 17.061874 21.364735 -0.982258 -4.043008 -3.507017 4.875301 3.823498 7.002851 8.570209 -4.187160 24.958801 -11.054611 -0.011857 0.113409 0.301704 -14.361097 -10.531753 11.760509 1.089306 -12.806233 5.931683 0.498622 9.508980 
-22.476641 49.839275 -2.226566 -2.897926 -3.679368 -2.016344 0.000000 0.000000 0.000000 0.638288 -0.868758 1.699320 4.316837 -5.124257 -1.863751 12.697165 6.078497 -6.137320 -4.506114 10.201176 1.612250 40.696178 -128.072693 -57.796700 -93.426407 9.354345 -21.207096 0.858462 7.950264 -3.528351 9.430029 3.568599 1.022743 56.674454 7.103510 42.214397 50.546978 15.106648 25.460831 -1.489867 -4.652644 -3.511868 5.152718 3.943291 7.065630 8.830931 -3.998250 24.882936 -11.287898 -0.024739 0.410910 -0.108395 -13.910936 -10.287909 12.964274 1.178071 -13.860222 6.551559 0.539497 9.397939 
-22.293100 49.876526 -2.239100 -3.579776 -4.313055 -2.262687 0.000000 0.000000 0.000000 1.313776 -0.673397 2.050869 4.662628 -4.840758 -2.019374 12.624433 5.996172 -6.539579 -4.482274 9.687593 2.241501 42.452168 -127.908806 -58.286594 -93.947777 9.795739 -21.317551 2.733210 7.610693 -3.457233 10.948693 3.655134 1.574563 56.820259 4.041922 40.512096 52.876503 13.119942 26.750910 -2.254907 -4.906871 -3.499030 5.806775 4.227023 7.402851 8.812910 -3.921825 25.075083 -11.374451 -0.063014 0.641625 -0.587190 -13.244531 -9.941263 14.428721 1.150875 -15.956063 7.174279 0.545419 8.623649 
-22.196205 49.864704 -2.412819 -2.934799 -4.211986 -3.251353 0.000000 0.000000 0.000000 1.027646 -1.199352 3.154831 4.571115 -4.879970 -1.960996 12.452425 6.102888 -7.296535 -3.478638 8.871607 1.963562 43.575649 -127.200592 -58.724758 -94.863579 10.366534 -18.182171 4.003144 7.576934 -3.413290 11.535760 3.528405 1.446675 54.812954 2.233927 40.086788 56.153687 11.414570 22.078821 0.300668 -4.247382 -3.528379 5.212177 4.022192 7.230298 8.401293 -4.094681 26.382641 -11.062322 -0.058561 0.589097 -2.802732 -13.257072 -9.536213 16.117344 1.149976 -16.895483 7.383111 0.529057 8.234767 
-22.048695 49.904179 -2.400619 -2.265135 -4.564287 -2.949551 0.000000 0.000000 0.000000 0.464880 -1.131586 2.666460 4.437562 -5.063216 -2.588743 12.359262 6.959695 -7.644064 -3.535055 8.715330 1.408964 46.487331 -126.316437 -61.128136 -95.704895 10.838702 -16.405003 2.401132 6.727392 -3.476171 11.162463 3.019601 0.949170 54.799118 0.778935 39.494652 57.384327 10.379519 21.431084 1.992065 -3.988904 -3.520658 4.410072 4.176457 7.174382 8.587234 -4.037003 26.245510 -11.224215 -0.100849 1.013165 -3.368242 -12.998635 -9.684560 15.897082 1.610877 -18.605272 8.247321 0.560749 7.922757 
-21.852612 49.864071 -2.439013 -2.211822 -4.192404 -3.270830 0.000000 0.000000 0.000000 0.374299 -1.414516 2.637361 4.825200 -5.706318 -2.758691 11.759572 7.987235 -8.085667 -3.204405 8.349069 1.281167 50.471218 -125.551895 -63.971703 -97.696396 11.708966 -17.326332 -2.170123 5.601624 -3.576158 10.861143 2.340689 0.949824 54.805546 -0.756752 37.693027 58.326252 9.364782 20.622313 4.677962 -3.197759 -3.499321 4.528629 3.465873 6.670872 8.002021 -3.988628 27.063805 -11.018676 -0.114604 1.060042 -3.797946 -13.692418 -10.270161 16.190241 1.913606 -19.193897 8.703948 0.607423 8.135575 
-21.730719 49.853027 -2.455586 -2.284453 -4.659929 -3.371266 0.000000 0.000000 0.000000 0.478450 -1.219293 2.754529 5.257312 -5.568315 -3.052140 11.266513 8.219132 -8.564759 -2.761607 8.823380 1.381014 51.445038 -124.229980 -63.311085 -98.279846 12.155298 -17.046894 -0.942598 5.783292 -3.553498 10.985998 2.299097 1.026446 54.297001 -2.505102 36.433159 58.960712 9.004920 18.773521 5.921099 -2.923512 -3.479256 4.708804 3.715470 6.730759 7.741363 -3.856882 27.169672 -10.885672 -0.072778 0.701031 -3.682071 -13.544234 -10.712703 16.055799 2.554380 -19.723032 9.052769 0.600430 7.666569 
-21.589554 49.873005 -2.464562 -2.301313 -4.590692 -3.576452 0.000000 0.000000 0.000000 0.523125 -1.394598 2.979296 5.473336 -5.829598 -3.406835 11.182555 8.640407 -9.146336 -2.358926 8.880363 1.421488 49.455872 -123.311989 -61.136593 -97.731972 11.744192 -17.481815 0.141500 5.155193 -3.517516 11.063059 1.641201 1.150406 54.387352 -2.521937 36.316849 57.663715 9.668946 16.476458 4.784689 -2.859661 -3.478136 5.051348 3.423464 6.607111 6.996795 -3.910269 27.582682 -10.655554 -0.093959 1.134153 -3.739638 -13.957477 -11.140680 15.984134 2.869754 -19.404490 9.667253 0.641119 7.589113 
-21.528408 49.886780 -2.505621 -2.149993 -4.987765 -4.019286 0.000000 0.000000 0.000000 0.498673 -1.384552 3.203841 5.570605 -5.827815 -3.691543 11.489292 9.110445 -9.623732 -2.077145 9.326867 1.423247 46.419769 -123.500526 -59.257607 -96.531677 10.949759 -18.502928 0.923622 5.898787 -3.509392 11.185853 1.891921 1.121163 54.325348 -1.745974 37.000984 55.523106 10.888445 15.452871 2.038976 -2.675652 -3.482102 4.500122 3.730000 6.778836 7.806032 -3.869812 28.022552 -10.997898 -0.112673 1.136813 -3.788898 -13.686348 -10.921134 15.423390 2.945391 -19.021915 10.473155 0.694929 7.741304 
-21.472145 49.912479 -2.504943 -2.384494 -5.650057 -4.043278 0.000000 0.000000 0.000000 0.749645 -1.189849 2.930272 5.786555 -5.679622 -3.994691 11.739228 9.405371 -9.759948 -2.559950 9.481428 1.661808 43.422981 -123.826408 -57.198395 -95.285797 10.097672 -19.551483 1.715706 6.164478 -3.497578 11.005580 1.855566 1.304195 55.550438 -0.482461 37.526333 52.557880 12.436732 14.952829 -2.519060 -2.280547 -3.524132 4.705042 4.218153 7.100482 8.002497 -3.754834 27.820053 -11.126143 -0.121032 1.067978 -3.017783 -13.160627 -10.899294 14.425877 3.166623 -18.935926 11.183360 0.722739 7.565906 
-21.368662 49.870712 -2.615115 -1.772935 -5.565925 -4.867270 0.000000 0.000000 0.000000 0.559967 -1.414039 3.028108 5.350715 -5.913636 -3.966542 11.949776 9.280794 -9.737526 -2.776954 9.199643 1.481916 42.738270 -125.891098 -57.662403 -95.527924 10.363376 -19.960667 0.474238 7.250776 -3.543798 11.069881 1.762311 1.169521 56.605007 0.530860 37.695255 50.569080 13.560837 14.841849 -5.084744 -2.672631 -3.534034 3.637251 3.959697 6.724016 8.714756 -3.657011 29.092430 -11.362329 -0.068553 0.866777 -3.749166 -13.332538 -10.673635 14.106530 3.112214 -17.715336 11.439056 0.782668 7.916086 
-21.402727 49.903072 -2.470702 -2.783598 -6.669521 -4.444244 0.000000 0.000000 0.000000 1.371755 -1.063533 2.383127 5.753162 -5.267209 -4.472832 12.010381 8.841867 -9.577558 -3.475398 9.872563 2.255294 40.237984 -126.656746 -55.623272 -94.445824 9.983702 -20.282362 0.000348 7.514550 -3.552005 9.971726 2.638283 1.780403 57.477245 1.741479 37.632530 49.179077 14.206022 14.154773 -5.214178 -2.797501 -3.517143 4.557591 5.095014 7.652915 9.488170 -3.611316 27.829706 -11.882130 -0.052456 0.647775 -1.396753 -12.238118 -10.740411 12.262252 3.413521 -18.406878 12.173222 0.835257 7.846058 
-21.310863 49.842686 -2.627848 -1.751131 -6.023777 -5.813783 0.000000 0.000000 0.000000 0.872720 -1.443861 2.569020 5.178191 -6.057468 -4.272719 11.907663 8.563588 -9.530109 -3.186241 9.252890 1.768404 43.202831 -127.575203 -57.932770 -96.406891 10.760780 -22.040876 2.242261 8.988707 -3.463405 10.188396 2.401333 1.403992 58.491699 0.552071 36.857346 50.835621 13.272156 15.371017 -5.116033 -4.310488 -3.478557 3.376784 4.315049 6.963902 9.509023 -3.642495 29.641829 -11.805493 -0.058845 0.459630 -3.173332 -12.874300 -10.447870 12.643916 3.191829 -17.133688 11.845653 0.824950 7.914174 
-21.292805 49.859711 -2.657338 -2.088499 -6.459179 -6.752990 0.000000 0.000000 0.000000 1.338894 -1.277523 3.018134 5.401523 -5.893234 -4.094826 11.771799 8.557158 -9.786922 -2.951425 9.102611 2.222667 43.988087 -126.490128 -58.140812 -96.339760 10.440208 -23.135984 2.653853 7.919065 -3.460089 10.771759 2.302850 1.833041 58.457241 -1.067725 36.304977 53.415146 11.942702 16.396929 -5.930037 -3.365140 -3.504081 3.602397 4.657969 7.355510 10.031012 -3.664548 30.206955 -12.059242 -0.038274 0.459408 -3.046096 -12.344409 -9.968049 12.486304 3.044347 -16.758648 12.192882 0.815052 7.609452 
-21.307232 49.882202 -2.694886 -2.322761 -6.738608 -7.543615 0.000000 0.000000 0.000000 1.588646 -1.384335 3.360281 5.843132 -5.600042 -4.229837 11.808220 8.607734 -10.064487 -2.530055 9.100161 2.460819 45.239265 -125.709259 -59.104515 -96.369385 10.546936 -22.171209 1.114725 7.320347 -3.509844 10.632473 3.292323 2.027639 56.239853 -2.432398 36.856228 56.237244 11.360587 13.254105 -5.475467 -2.531143 -3.532008 3.929568 5.012901 7.935334 10.104673 -4.042980 30.454762 -12.185152 -0.062295 0.632443 -2.782511 -11.934604 -9.704734 11.945797 2.973689 -16.479115 12.402926 0.773244 7.130849 
-21.244072 49.874813 -2.669606 -1.018479 -6.498031 -7.440969 0.000000 0.000000 0.000000 0.481035 -1.599777 2.705931 5.413146 -5.313695 -4.767252 11.816571 8.653898 -9.769065 -2.311329 9.313484 1.363679 48.461231 -125.257378 -61.257843 -97.742233 10.939356 -23.867413 -0.535406 5.671237 -3.540808 9.987226 2.974658 1.030154 56.028660 -5.082373 36.767109 57.546299 10.008155 15.663415 -5.529065 -0.457622 -3.605525 2.751106 4.830642 7.384555 9.739933 -3.891096 30.630377 -11.980892 -0.055567 0.515855 -3.524438 -12.130912 -9.801685 10.951688 3.208990 -16.954851 12.628821 0.779702 7.025671 
-21.248302 49.873657 -2.694604 -1.929821 -6.524540 -8.228162 0.000000 0.000000 0.000000 1.197032 -1.609697 2.579027 6.166529 -5.618072 -4.426121 11.281649 8.863903 -9.468443 -1.935391 8.074100 1.951888 52.904350 -124.725487 -64.148773 -99.511879 11.898693 -23.503992 -1.601664 5.567377 -3.558055 9.767031 2.726032 1.704593 56.043152 -6.524925 34.895813 58.027771 8.426934 17.664848 -2.049903 -0.077373 -3.524891 3.725651 4.457692 7.184574 9.694870 -3.525456 31.443787 -11.883700 -0.014232 0.384291 -3.065864 -12.161700 -9.900482 11.296289 3.191633 -16.162294 12.328059 0.706094 6.554067 
